<svg width="273" height="82" viewBox="0 0 273 82" fill="none" xmlns="http://www.w3.org/2000/svg">
<circle cx="36" cy="40" r="16" fill="#ECEAF8"/>
<path d="M36.0009 48.076C40.4535 48.076 44.076 44.4535 44.076 40.0009C44.076 35.5483 40.4535 31.9258 36.0009 31.9258C31.5483 31.9258 27.9258 35.5483 27.9258 40.0009C27.9258 44.4535 31.5483 48.076 36.0009 48.076ZM38.8215 37.5784C38.9826 37.5743 39.1428 37.6024 39.2927 37.6612C39.4426 37.72 39.5793 37.8082 39.6946 37.9206C39.8099 38.0331 39.9015 38.1675 39.9641 38.3159C40.0266 38.4643 40.0588 38.6237 40.0588 38.7848C40.0587 38.9459 40.0264 39.1053 39.9638 39.2536C39.9011 39.402 39.8094 39.5364 39.694 39.6487C39.5786 39.7611 39.4419 39.8492 39.2919 39.9079C39.142 39.9666 38.9817 39.9946 38.8207 39.9904C38.5063 39.9822 38.2075 39.8514 37.988 39.6261C37.7686 39.4007 37.6458 39.0986 37.6459 38.784C37.646 38.4694 37.769 38.1674 37.9886 37.9421C38.2082 37.7169 38.5071 37.5864 38.8215 37.5784ZM35.3484 43.1655C35.7791 43.2519 36.2227 43.2519 36.6534 43.1655C36.8577 43.1236 37.0612 43.0598 37.259 42.9774C37.448 42.8966 37.6337 42.7965 37.8073 42.6802C37.9753 42.5656 38.136 42.4331 38.2846 42.2854C38.4323 42.1384 38.5648 41.9777 38.6794 41.8073L40.0183 42.7093C39.6702 43.2252 39.2264 43.6696 38.7109 44.0183C38.1857 44.3727 37.5962 44.6207 36.9756 44.7483C36.3322 44.8775 35.6695 44.8772 35.0262 44.7475C34.4055 44.6217 33.8159 44.3739 33.2917 44.0183C32.7762 43.6687 32.332 43.2242 31.9827 42.7085L33.3216 41.8065C33.4371 41.9769 33.5695 42.1376 33.7156 42.2829C34.1615 42.731 34.7293 43.038 35.3484 43.1655ZM33.1746 37.5784C33.3337 37.5784 33.4913 37.6098 33.6383 37.6708C33.7853 37.7317 33.9188 37.821 34.0313 37.9335C34.1438 38.0461 34.233 38.1797 34.2938 38.3267C34.3546 38.4738 34.3859 38.6313 34.3859 38.7904C34.3858 38.9496 34.3544 39.1071 34.2935 39.2541C34.2326 39.4011 34.1433 39.5346 34.0307 39.6471C33.9182 39.7596 33.7846 39.8488 33.6375 39.9096C33.4905 39.9705 33.3329 40.0018 33.1738 40.0017C32.8524 40.0016 32.5443 39.8738 32.3171 39.6465C32.09 39.4192 31.9624 39.111 31.9625 38.7896C31.9626 38.4683 32.0904 38.1601 32.3177 37.933C32.545 37.7058 32.8533 37.5783 33.1746 37.5784Z" fill="#344BFD"/>
<path d="M68.2324 27.1016H70.2422L72.6758 31.4766H72.7715L75.2051 27.1016H77.2148L73.6191 33.2949V37H71.8418V33.2949L68.2324 27.1016ZM80.1543 37.1504C77.9941 37.1504 76.5996 35.6191 76.5996 33.3223C76.5996 31.0117 77.9941 29.4805 80.1543 29.4805C82.3281 29.4805 83.709 31.0117 83.709 33.3223C83.709 35.6191 82.3281 37.1504 80.1543 37.1504ZM80.168 35.7559C81.3574 35.7559 81.9453 34.6758 81.9453 33.3086C81.9453 31.9551 81.3574 30.8613 80.168 30.8613C78.9512 30.8613 78.3633 31.9551 78.3633 33.3086C78.3633 34.6758 78.9512 35.7559 80.168 35.7559ZM89.8066 33.8828V29.5762H91.543V37H89.8613V35.6875H89.7793C89.4375 36.5078 88.6582 37.0957 87.5508 37.0957C86.0879 37.0957 85.0762 36.084 85.0625 34.3066V29.5762H86.8125V34.0332C86.8125 34.9766 87.373 35.5781 88.2207 35.5781C88.9863 35.5781 89.8066 35.0176 89.8066 33.8828ZM96.1914 34.9082C96.1914 33.2402 97.5723 32.748 98.9531 32.666C99.4658 32.6318 100.532 32.5703 100.854 32.5566V31.9688C100.854 31.2305 100.375 30.8066 99.5137 30.8066C98.7344 30.8066 98.2559 31.1621 98.1191 31.6953H96.4375C96.5605 30.4375 97.6953 29.4805 99.5547 29.4805C100.963 29.4805 102.59 30.0547 102.59 32.0371V37H100.922V35.9746H100.867C100.539 36.6035 99.8418 37.1504 98.6797 37.1504C97.2578 37.1504 96.1914 36.3711 96.1914 34.9082ZM97.873 34.8945C97.873 35.5371 98.3926 35.8652 99.1309 35.8652C100.184 35.8652 100.867 35.168 100.867 34.334V33.7188L99.2266 33.8281C98.3926 33.8965 97.873 34.2383 97.873 34.8945ZM104.23 37V29.5762H105.926V30.8066H106.008C106.268 29.959 106.992 29.4668 107.84 29.4668C108.031 29.4668 108.305 29.4805 108.469 29.5078V31.1211C108.318 31.0664 107.949 31.0117 107.662 31.0117C106.691 31.0117 105.98 31.6816 105.98 32.625V37H104.23ZM112.557 37.1504C110.314 37.1504 108.947 35.6602 108.947 33.3359C108.947 31.0391 110.342 29.4805 112.461 29.4805C114.279 29.4805 115.852 30.6152 115.852 33.2266V33.7734H110.67C110.69 35.0381 111.436 35.7832 112.57 35.7832C113.336 35.7832 113.855 35.4551 114.074 35.0176H115.783C115.469 36.3027 114.279 37.1504 112.557 37.1504ZM110.684 32.584H114.184C114.17 31.5723 113.5 30.834 112.488 30.834C111.436 30.834 110.738 31.6338 110.684 32.584ZM123.289 37.1367C121.539 37.1367 120.227 35.7422 120.227 33.2949C120.227 30.8203 121.58 29.4805 123.303 29.4805C124.615 29.4805 125.162 30.2598 125.422 30.793H125.49V27.1016H127.227V37H125.518V35.8242H125.422C125.148 36.3711 124.574 37.1367 123.289 37.1367ZM123.768 35.7012C124.889 35.7012 125.531 34.7305 125.531 33.2812C125.531 31.8457 124.902 30.9023 123.768 30.9023C122.605 30.9023 122.004 31.9004 122.004 33.2812C122.004 34.6895 122.619 35.7012 123.768 35.7012ZM132.23 37.1504C130.07 37.1504 128.676 35.6191 128.676 33.3223C128.676 31.0117 130.07 29.4805 132.23 29.4805C134.404 29.4805 135.785 31.0117 135.785 33.3223C135.785 35.6191 134.404 37.1504 132.23 37.1504ZM132.244 35.7559C133.434 35.7559 134.021 34.6758 134.021 33.3086C134.021 31.9551 133.434 30.8613 132.244 30.8613C131.027 30.8613 130.439 31.9551 130.439 33.3086C130.439 34.6758 131.027 35.7559 132.244 35.7559ZM137.139 37V29.5762H138.889V37H137.139ZM138.027 28.5234C137.48 28.5234 137.016 28.0996 137.016 27.5664C137.016 27.0469 137.48 26.623 138.027 26.623C138.588 26.623 139.039 27.0469 139.039 27.5664C139.039 28.0996 138.588 28.5234 138.027 28.5234ZM142.307 32.6523V37H140.557V29.5762H142.225V30.834H142.32C142.662 30 143.414 29.4805 144.521 29.4805C146.066 29.4805 147.078 30.4922 147.064 32.2695V37H145.328V32.543C145.328 31.5449 144.795 30.957 143.879 30.957C142.949 30.957 142.307 31.5723 142.307 32.6523ZM151.973 39.9395C150.004 39.9395 148.76 39.0645 148.637 37.6699H150.373C150.496 38.3125 151.111 38.627 152 38.627C153.039 38.627 153.723 38.1758 153.723 37.082V35.6602H153.641C153.367 36.207 152.779 36.8906 151.494 36.8906C149.785 36.8906 148.432 35.6465 148.432 33.2266C148.432 30.7793 149.785 29.4805 151.508 29.4805C152.82 29.4805 153.367 30.2598 153.641 30.793H153.723V29.5762H155.445V37.123C155.445 39.0234 153.982 39.9395 151.973 39.9395ZM151.973 35.5234C153.094 35.5234 153.736 34.6758 153.736 33.2539C153.736 31.8457 153.107 30.9023 151.973 30.9023C150.811 30.9023 150.209 31.9004 150.209 33.2539C150.209 34.6211 150.824 35.5234 151.973 35.5234ZM163.676 39.9395C161.707 39.9395 160.463 39.0645 160.34 37.6699H162.076C162.199 38.3125 162.814 38.627 163.703 38.627C164.742 38.627 165.426 38.1758 165.426 37.082V35.6602H165.344C165.07 36.207 164.482 36.8906 163.197 36.8906C161.488 36.8906 160.135 35.6465 160.135 33.2266C160.135 30.7793 161.488 29.4805 163.211 29.4805C164.523 29.4805 165.07 30.2598 165.344 30.793H165.426V29.5762H167.148V37.123C167.148 39.0234 165.686 39.9395 163.676 39.9395ZM163.676 35.5234C164.797 35.5234 165.439 34.6758 165.439 33.2539C165.439 31.8457 164.811 30.9023 163.676 30.9023C162.514 30.9023 161.912 31.9004 161.912 33.2539C161.912 34.6211 162.527 35.5234 163.676 35.5234ZM172.057 37.1504C169.896 37.1504 168.502 35.6191 168.502 33.3223C168.502 31.0117 169.896 29.4805 172.057 29.4805C174.23 29.4805 175.611 31.0117 175.611 33.3223C175.611 35.6191 174.23 37.1504 172.057 37.1504ZM172.07 35.7559C173.26 35.7559 173.848 34.6758 173.848 33.3086C173.848 31.9551 173.26 30.8613 172.07 30.8613C170.854 30.8613 170.266 31.9551 170.266 33.3086C170.266 34.6758 170.854 35.7559 172.07 35.7559ZM180.205 37.1504C178.045 37.1504 176.65 35.6191 176.65 33.3223C176.65 31.0117 178.045 29.4805 180.205 29.4805C182.379 29.4805 183.76 31.0117 183.76 33.3223C183.76 35.6191 182.379 37.1504 180.205 37.1504ZM180.219 35.7559C181.408 35.7559 181.996 34.6758 181.996 33.3086C181.996 31.9551 181.408 30.8613 180.219 30.8613C179.002 30.8613 178.414 31.9551 178.414 33.3086C178.414 34.6758 179.002 35.7559 180.219 35.7559ZM187.875 37.1367C186.125 37.1367 184.812 35.7422 184.812 33.2949C184.812 30.8203 186.166 29.4805 187.889 29.4805C189.201 29.4805 189.748 30.2598 190.008 30.793H190.076V27.1016H191.812V37H190.104V35.8242H190.008C189.734 36.3711 189.16 37.1367 187.875 37.1367ZM188.354 35.7012C189.475 35.7012 190.117 34.7305 190.117 33.2812C190.117 31.8457 189.488 30.9023 188.354 30.9023C187.191 30.9023 186.59 31.9004 186.59 33.2812C186.59 34.6895 187.205 35.7012 188.354 35.7012ZM195.695 27.1016L195.545 34.0879H194L193.836 27.1016H195.695ZM194.779 37.1094C194.191 37.1094 193.713 36.6309 193.713 36.043C193.713 35.4688 194.191 34.9902 194.779 34.9902C195.34 34.9902 195.832 35.4688 195.832 36.043C195.832 36.6309 195.34 37.1094 194.779 37.1094Z" fill="black"/>
<path d="M68.2461 44.1016H69.6543L72.375 48.6953H72.498L75.2188 44.1016H76.6406L73.0586 49.9395V54H71.8145V49.9395L68.2461 44.1016ZM79.7852 54.1504C77.7617 54.1504 76.3945 52.6328 76.3945 50.3223C76.3945 48.0117 77.7617 46.4805 79.7852 46.4805C81.7949 46.4805 83.1484 48.0117 83.1484 50.3223C83.1484 52.6328 81.7949 54.1504 79.7852 54.1504ZM79.7852 53.1113C81.2754 53.1113 81.9727 51.7988 81.9727 50.3223C81.9727 48.8457 81.2754 47.5195 79.7852 47.5195C78.2676 47.5195 77.5703 48.8457 77.5703 50.3223C77.5703 51.7988 78.2676 53.1113 79.7852 53.1113ZM89.3828 50.9512V46.5762H90.5449V54H89.3828V52.7422H89.3008C88.9453 53.4941 88.2207 54.0957 87.0996 54.0957C85.6914 54.0957 84.6934 53.1797 84.6934 51.293V46.5762H85.8691V51.2109C85.8691 52.2773 86.5391 52.9609 87.4824 52.9609C88.3164 52.9609 89.3828 52.332 89.3828 50.9512ZM95.5898 51.8945C95.5898 50.1855 97.0938 49.8027 98.3789 49.707C98.8506 49.6729 100.054 49.6113 100.389 49.5977V48.9961C100.389 48.0527 99.8281 47.5059 98.707 47.5059C97.7637 47.5059 97.2031 47.9434 97.0391 48.5039H95.8086C95.959 47.3145 97.1211 46.4805 98.7617 46.4805C99.7324 46.4805 101.551 46.7676 101.551 49.1055V54H100.389V52.9883H100.334C100.088 53.4941 99.4043 54.1777 98.1191 54.1777C96.7109 54.1777 95.5898 53.3438 95.5898 51.8945ZM96.7656 51.9492C96.7656 52.7285 97.4219 53.125 98.3242 53.125C99.6504 53.125 100.389 52.2363 100.389 51.3066V50.5547L98.5156 50.6914C97.4492 50.7598 96.7656 51.1426 96.7656 51.9492ZM104.613 44.1016V54H103.438V44.1016H104.613ZM106.486 54V46.5762H107.621V47.7383H107.717C108.031 46.9453 108.742 46.4805 109.713 46.4805C110.684 46.4805 111.34 46.9453 111.695 47.7383H111.777C112.16 46.9727 112.939 46.4805 114.006 46.4805C115.332 46.4805 116.275 47.2871 116.275 49.0371V54H115.1V49.0508C115.1 47.957 114.402 47.5332 113.596 47.5332C112.557 47.5332 111.969 48.2305 111.969 49.1738V54H110.779V48.9277C110.779 48.0938 110.178 47.5332 109.33 47.5332C108.441 47.5332 107.662 48.2852 107.662 49.3652V54H106.486ZM121.197 54.1504C119.174 54.1504 117.807 52.6328 117.807 50.3223C117.807 48.0117 119.174 46.4805 121.197 46.4805C123.207 46.4805 124.561 48.0117 124.561 50.3223C124.561 52.6328 123.207 54.1504 121.197 54.1504ZM121.197 53.1113C122.688 53.1113 123.385 51.7988 123.385 50.3223C123.385 48.8457 122.688 47.5195 121.197 47.5195C119.68 47.5195 118.982 48.8457 118.982 50.3223C118.982 51.7988 119.68 53.1113 121.197 53.1113ZM130.234 48.5039C130.07 47.8887 129.605 47.4785 128.73 47.4785C127.814 47.4785 127.158 47.9707 127.158 48.5996C127.158 49.0918 127.555 49.4336 128.43 49.6387L129.537 49.9121C130.863 50.2266 131.52 50.8828 131.52 51.9219C131.52 53.207 130.467 54.1504 128.607 54.1504C126.939 54.1504 125.941 53.4121 125.75 52.0586H126.98C127.117 52.7832 127.65 53.125 128.58 53.125C129.633 53.125 130.303 52.6875 130.303 51.9902C130.303 51.4707 129.934 51.1152 129.086 50.9238L127.965 50.6641C126.666 50.3633 125.982 49.6523 125.982 48.668C125.982 47.3965 127.09 46.4805 128.73 46.4805C130.262 46.4805 131.232 47.3008 131.383 48.5039H130.234ZM136.291 46.5762V47.5605H134.732V51.8672C134.732 52.8242 135.197 52.9746 135.703 52.9746C135.922 52.9746 136.223 52.9609 136.4 52.9473V54.041C136.223 54.0684 135.922 54.0957 135.58 54.0957C134.596 54.0957 133.543 53.4805 133.543 52.168V47.5605H132.422V46.5762H133.543V44.7988H134.732V46.5762H136.291ZM141.322 54V46.5762H142.457V47.7109H142.539C142.812 46.959 143.578 46.4531 144.453 46.4531C144.631 46.4531 144.932 46.4668 145.068 46.4805V47.6699C144.986 47.6426 144.658 47.5879 144.357 47.5879C143.291 47.5879 142.498 48.3262 142.498 49.3242V54H141.322ZM149.088 54.1504C146.941 54.1504 145.615 52.6328 145.615 50.3496C145.615 48.0664 146.955 46.4805 148.979 46.4805C150.537 46.4805 152.178 47.4375 152.178 50.1855V50.6777H146.791C146.846 52.25 147.762 53.1113 149.088 53.1113C149.977 53.1113 150.537 52.7285 150.811 52.2637H152.068C151.713 53.3848 150.619 54.1504 149.088 54.1504ZM146.805 49.6797H150.988C150.988 48.4355 150.195 47.5195 148.979 47.5195C147.693 47.5195 146.873 48.5312 146.805 49.6797ZM153.354 51.8945C153.354 50.1855 154.857 49.8027 156.143 49.707C156.614 49.6729 157.817 49.6113 158.152 49.5977V48.9961C158.152 48.0527 157.592 47.5059 156.471 47.5059C155.527 47.5059 154.967 47.9434 154.803 48.5039H153.572C153.723 47.3145 154.885 46.4805 156.525 46.4805C157.496 46.4805 159.314 46.7676 159.314 49.1055V54H158.152V52.9883H158.098C157.852 53.4941 157.168 54.1777 155.883 54.1777C154.475 54.1777 153.354 53.3438 153.354 51.8945ZM154.529 51.9492C154.529 52.7285 155.186 53.125 156.088 53.125C157.414 53.125 158.152 52.2363 158.152 51.3066V50.5547L156.279 50.6914C155.213 50.7598 154.529 51.1426 154.529 51.9492ZM164.236 54.1504C162.131 54.1504 160.846 52.5508 160.846 50.3223C160.846 48.0664 162.186 46.4805 164.209 46.4805C165.795 46.4805 166.971 47.4102 167.162 48.8184H165.986C165.822 48.1348 165.221 47.5195 164.236 47.5195C162.91 47.5195 162.021 48.6133 162.021 50.2812C162.021 52.0039 162.883 53.0977 164.236 53.0977C165.111 53.0977 165.781 52.6328 165.986 51.8125H167.162C166.971 53.1387 165.891 54.1504 164.236 54.1504ZM169.787 49.543V54H168.611V44.1016H169.787V47.7383H169.883C170.225 46.9727 170.895 46.4805 172.07 46.4805C173.588 46.4805 174.6 47.3828 174.6 49.2832V54H173.424V49.3652C173.424 48.2031 172.781 47.5332 171.715 47.5332C170.607 47.5332 169.787 48.2578 169.787 49.543ZM179.604 54.1504C177.457 54.1504 176.131 52.6328 176.131 50.3496C176.131 48.0664 177.471 46.4805 179.494 46.4805C181.053 46.4805 182.693 47.4375 182.693 50.1855V50.6777H177.307C177.361 52.25 178.277 53.1113 179.604 53.1113C180.492 53.1113 181.053 52.7285 181.326 52.2637H182.584C182.229 53.3848 181.135 54.1504 179.604 54.1504ZM177.32 49.6797H181.504C181.504 48.4355 180.711 47.5195 179.494 47.5195C178.209 47.5195 177.389 48.5312 177.32 49.6797ZM187.027 54.1504C185.182 54.1504 183.869 52.6602 183.869 50.3086C183.869 47.957 185.182 46.4805 187.041 46.4805C188.477 46.4805 188.941 47.3555 189.188 47.752H189.27V44.1016H190.459V54H189.311V52.8652H189.188C188.928 53.2754 188.449 54.1504 187.027 54.1504ZM187.191 53.0977C188.545 53.0977 189.311 51.9492 189.311 50.2812C189.311 48.6406 188.572 47.5332 187.191 47.5332C185.77 47.5332 185.059 48.7363 185.059 50.2812C185.059 51.8672 185.783 53.0977 187.191 53.0977ZM196.762 56.7891C196.502 56.7891 196.256 56.7754 196.105 56.7617V55.709C196.229 55.7227 196.502 55.7363 196.68 55.7363C197.158 55.7363 197.555 55.6953 197.951 54.6152L198.17 54.0547L195.422 46.5762H196.707L198.73 52.4688H198.812L200.836 46.5762H202.121L198.977 55.0664C198.539 56.2285 197.814 56.7891 196.762 56.7891ZM206.182 54.1504C204.158 54.1504 202.791 52.6328 202.791 50.3223C202.791 48.0117 204.158 46.4805 206.182 46.4805C208.191 46.4805 209.545 48.0117 209.545 50.3223C209.545 52.6328 208.191 54.1504 206.182 54.1504ZM206.182 53.1113C207.672 53.1113 208.369 51.7988 208.369 50.3223C208.369 48.8457 207.672 47.5195 206.182 47.5195C204.664 47.5195 203.967 48.8457 203.967 50.3223C203.967 51.7988 204.664 53.1113 206.182 53.1113ZM215.779 50.9512V46.5762H216.941V54H215.779V52.7422H215.697C215.342 53.4941 214.617 54.0957 213.496 54.0957C212.088 54.0957 211.09 53.1797 211.09 51.293V46.5762H212.266V51.2109C212.266 52.2773 212.936 52.9609 213.879 52.9609C214.713 52.9609 215.779 52.332 215.779 50.9512ZM218.828 54V46.5762H219.963V47.7109H220.045C220.318 46.959 221.084 46.4531 221.959 46.4531C222.137 46.4531 222.438 46.4668 222.574 46.4805V47.6699C222.492 47.6426 222.164 47.5879 221.863 47.5879C220.797 47.5879 220.004 48.3262 220.004 49.3242V54H218.828ZM230.244 56.9395C228.453 56.9395 227.236 56.1602 227.1 54.7793H228.33C228.494 55.5312 229.191 55.9141 230.244 55.9141C231.516 55.9141 232.295 55.3672 232.295 54.1367V52.6328H232.199C231.953 53.043 231.475 53.8906 230.039 53.8906C228.234 53.8906 226.881 52.5234 226.881 50.1855C226.881 47.9023 228.193 46.4805 230.053 46.4805C231.488 46.4805 231.953 47.3555 232.227 47.752H232.322V46.5762H233.471V54.2051C233.471 56.1191 232.049 56.9395 230.244 56.9395ZM230.203 52.8379C231.557 52.8379 232.322 51.8672 232.322 50.2266C232.322 48.6406 231.584 47.5332 230.203 47.5332C228.781 47.5332 228.07 48.7363 228.07 50.2266C228.07 51.7715 228.795 52.8379 230.203 52.8379ZM238.379 54.1504C236.355 54.1504 234.988 52.6328 234.988 50.3223C234.988 48.0117 236.355 46.4805 238.379 46.4805C240.389 46.4805 241.742 48.0117 241.742 50.3223C241.742 52.6328 240.389 54.1504 238.379 54.1504ZM238.379 53.1113C239.869 53.1113 240.566 51.7988 240.566 50.3223C240.566 48.8457 239.869 47.5195 238.379 47.5195C236.861 47.5195 236.164 48.8457 236.164 50.3223C236.164 51.7988 236.861 53.1113 238.379 53.1113ZM242.932 51.8945C242.932 50.1855 244.436 49.8027 245.721 49.707C246.192 49.6729 247.396 49.6113 247.73 49.5977V48.9961C247.73 48.0527 247.17 47.5059 246.049 47.5059C245.105 47.5059 244.545 47.9434 244.381 48.5039H243.15C243.301 47.3145 244.463 46.4805 246.104 46.4805C247.074 46.4805 248.893 46.7676 248.893 49.1055V54H247.73V52.9883H247.676C247.43 53.4941 246.746 54.1777 245.461 54.1777C244.053 54.1777 242.932 53.3438 242.932 51.8945ZM244.107 51.9492C244.107 52.7285 244.764 53.125 245.666 53.125C246.992 53.125 247.73 52.2363 247.73 51.3066V50.5547L245.857 50.6914C244.791 50.7598 244.107 51.1426 244.107 51.9492ZM251.955 44.1016V54H250.779V44.1016H251.955Z" fill="#BBBBBB"/>
</svg>
