<svg width="32" height="32" viewBox="0 0 32 32" fill="none" xmlns="http://www.w3.org/2000/svg">
<path d="M15.9998 29.3334C23.3638 29.3334 29.3332 23.3641 29.3332 16.0001C29.3332 8.63608 23.3638 2.66675 15.9998 2.66675C8.63584 2.66675 2.6665 8.63608 2.6665 16.0001C2.6665 23.3641 8.63584 29.3334 15.9998 29.3334Z" stroke="#FFFDFD" stroke-width="2" stroke-linecap="round" stroke-linejoin="round"/>
<path d="M15.9998 15.3334C16.8839 15.3334 17.7317 14.9822 18.3569 14.3571C18.982 13.732 19.3332 12.8841 19.3332 12.0001C19.3332 11.116 18.982 10.2682 18.3569 9.64306C17.7317 9.01794 16.8839 8.66675 15.9998 8.66675C15.1158 8.66675 14.2679 9.01794 13.6428 9.64306C13.0177 10.2682 12.6665 11.116 12.6665 12.0001C12.6665 12.8841 13.0177 13.732 13.6428 14.3571C14.2679 14.9822 15.1158 15.3334 15.9998 15.3334Z" stroke="#FFFDFD" stroke-width="2" stroke-linejoin="round"/>
<path d="M6.68115 25.5548C6.91049 22.0808 9.80115 19.3335 13.3332 19.3335H18.6665C22.1938 19.3335 25.0818 22.0735 25.3178 25.5408" stroke="#FFFDFD" stroke-width="2" stroke-linecap="round" stroke-linejoin="round"/>
</svg>
