<svg width="99" height="26" viewBox="0 0 99 26" fill="none" xmlns="http://www.w3.org/2000/svg">
<path d="M0.681641 3.16602H2.89648L14.8184 11.6699V3.16602H22.5156V25H19.5762L8.35156 17.4941V25H0.681641V3.16602ZM37.6367 12.8457C37.4544 12.7546 37.2174 12.709 36.9258 12.709C36.6432 12.709 36.3288 12.7956 35.9824 12.9688C35.6361 13.1328 35.2943 13.3607 34.957 13.6523C34.2461 14.2721 33.6491 15.0241 33.166 15.9082C32.6829 16.7923 32.4414 17.6081 32.4414 18.3555C32.4414 19.0938 32.724 19.5905 33.2891 19.8457C33.4896 19.9368 33.7357 19.9824 34.0273 19.9824C34.319 19.9824 34.6243 19.8958 34.9434 19.7227C35.2624 19.5404 35.5814 19.2988 35.9004 18.998C36.5658 18.3691 37.1491 17.6081 37.6504 16.7148C38.1517 15.8125 38.4023 15.0059 38.4023 14.2949C38.4023 13.584 38.1471 13.1009 37.6367 12.8457ZM34.9844 25.5059C32.3776 25.5059 30.1309 24.681 28.2441 23.0312C26.2298 21.2812 25.2227 19.0801 25.2227 16.4277C25.2227 13.7663 26.166 11.5924 28.0527 9.90625C29.9395 8.21094 32.2682 7.36328 35.0391 7.36328C37.8099 7.36328 40.1387 8.19271 42.0254 9.85156C43.9121 11.5013 44.86 13.7116 44.8691 16.4824C44.8783 18.2598 44.4271 19.832 43.5156 21.1992C42.6042 22.5664 41.3874 23.6237 39.8652 24.3711C38.3431 25.1185 36.7161 25.4967 34.9844 25.5059ZM60.4277 23.7695C58.696 24.9453 56.8594 25.5332 54.918 25.5332C52.9857 25.5332 51.4134 24.9863 50.2012 23.8926C48.9889 22.7897 48.3828 21.3086 48.3828 19.4492V12.3398H46.8242V8.00586H48.3828V3.41211L56.5586 2.57812V8.00586H60.4277V12.3398H56.5586V16.6328C56.5586 17.918 56.8457 18.8522 57.4199 19.4355C58.0033 20.0098 59.0059 20.2969 60.4277 20.2969V23.7695ZM67.1543 0.130859C68.4941 0.130859 69.4876 0.413411 70.1348 0.978516C70.7819 1.53451 71.1009 2.24544 71.0918 3.11133C71.0918 3.97721 70.6771 4.77474 69.8477 5.50391C69.0273 6.23307 67.929 6.59766 66.5527 6.59766C64.6204 6.59766 63.4173 6.01432 62.9434 4.84766C62.8066 4.51953 62.7383 4.15495 62.7383 3.75391C62.7383 3.35286 62.834 2.93359 63.0254 2.49609C63.2168 2.05859 63.5039 1.66667 63.8867 1.32031C64.7344 0.527344 65.8236 0.130859 67.1543 0.130859ZM70.8594 25H62.9434V8.00586H70.8594V25ZM74.209 11.7246C75.2207 11.7246 75.9362 11.2552 76.3555 10.3164C76.5286 9.89714 76.6335 9.42318 76.6699 8.89453H74.209V3.13867H82.5215V8.64844C82.5215 11.875 80.9993 13.9258 77.9551 14.8008C76.9069 15.1016 75.6582 15.252 74.209 15.252V11.7246ZM97.8203 13.1055C95.7969 12.6315 94.3249 12.3945 93.4043 12.3945C93.14 12.3945 92.9349 12.4538 92.7891 12.5723C92.6523 12.6908 92.584 12.8229 92.584 12.9688C92.584 13.2695 92.9577 13.5749 93.7051 13.8848C94.4616 14.1855 95.1543 14.4818 95.7832 14.7734C96.4121 15.0651 96.9544 15.4206 97.4102 15.8398C98.3945 16.7513 98.8867 18.1094 98.8867 19.9141C98.8867 21.7096 98.235 23.0905 96.9316 24.0566C95.6283 25.0228 93.8646 25.5059 91.6406 25.5059C89.4167 25.5059 87.6393 25.3008 86.3086 24.8906C85.7253 24.7174 85.2786 24.5124 84.9688 24.2754V19.2031C85.0964 19.2122 85.3197 19.2715 85.6387 19.3809C85.9577 19.4902 86.4863 19.6634 87.2246 19.9004C87.9629 20.1283 88.6328 20.2422 89.2344 20.2422C89.8451 20.2422 90.1504 20.0189 90.1504 19.5723C90.1504 19.2259 89.877 18.8887 89.3301 18.5605C89.084 18.4147 88.806 18.2643 88.4961 18.1094C87.2109 17.4805 86.2904 16.7559 85.7344 15.9355C85.1875 15.1061 84.9141 14.1354 84.9141 13.0234C84.9141 11.0456 85.7161 9.56901 87.3203 8.59375C88.6693 7.77344 90.4329 7.36328 92.6113 7.36328C94.1335 7.36328 95.6602 7.51367 97.1914 7.81445C97.5195 7.87826 97.7292 7.92383 97.8203 7.95117V13.1055Z" fill="#26282D"/>
</svg>
