<svg width="30" height="30" viewBox="0 0 30 30" fill="none" xmlns="http://www.w3.org/2000/svg">
<path d="M15 28.3333C22.364 28.3333 28.3334 22.364 28.3334 15C28.3334 7.63596 22.364 1.66663 15 1.66663C7.63602 1.66663 1.66669 7.63596 1.66669 15C1.66669 22.364 7.63602 28.3333 15 28.3333Z" stroke="#000000" stroke-width="2" stroke-linecap="round" stroke-linejoin="round"/>
<path d="M15 14.3333C15.8841 14.3333 16.7319 13.9821 17.357 13.357C17.9822 12.7319 18.3334 11.884 18.3334 11C18.3334 10.1159 17.9822 9.26806 17.357 8.64294C16.7319 8.01782 15.8841 7.66663 15 7.66663C14.116 7.66663 13.2681 8.01782 12.643 8.64294C12.0179 9.26806 11.6667 10.1159 11.6667 11C11.6667 11.884 12.0179 12.7319 12.643 13.357C13.2681 13.9821 14.116 14.3333 15 14.3333Z" stroke="#000000" stroke-width="2" stroke-linejoin="round"/>
<path d="M5.68134 24.5546C5.91067 21.0806 8.80134 18.3333 12.3333 18.3333H17.6667C21.194 18.3333 24.082 21.0733 24.318 24.5406" stroke="#000000" stroke-width="2" stroke-linecap="round" stroke-linejoin="round"/>
</svg>
